<?xml version="1.0" standalone="no"?>
<!DOCTYPE svg PUBLIC "-//W3C//DTD SVG 20010904//EN"
 "http://www.w3.org/TR/2001/REC-SVG-20010904/DTD/svg10.dtd">
<svg version="1.0" xmlns="http://www.w3.org/2000/svg"
 width="512.000000pt" height="512.000000pt" viewBox="0 0 512.000000 512.000000"
 preserveAspectRatio="xMidYMid meet">
<metadata>
Created by potrace 1.14, written by Peter Selinger 2001-2017
</metadata>
<g transform="translate(0.000000,512.000000) scale(0.100000,-0.100000)"
fill="#000000" stroke="none">
<path d="M1477 4964 c-4 -4 -28 -9 -54 -10 -27 -2 -64 -6 -83 -9 -19 -3 -43
-6 -52 -7 -10 -1 -18 -5 -18 -8 0 -4 -7 -7 -15 -7 -32 0 -168 -78 -213 -123
-52 -52 -76 -84 -73 -95 2 -4 -1 -11 -6 -14 -35 -24 -67 -165 -59 -265 5 -78
31 -193 48 -213 6 -7 8 -13 5 -13 -3 0 1 -12 9 -27 17 -33 26 -31 -126 -37
-107 -4 -136 -7 -216 -19 -42 -7 -217 -66 -228 -78 -6 -5 -18 -9 -28 -9 -10 0
-18 -4 -18 -8 0 -5 -15 -15 -33 -24 -40 -20 -67 -41 -123 -97 -47 -47 -90
-101 -79 -101 4 0 -1 -7 -9 -16 -39 -38 -63 -212 -45 -314 9 -49 50 -150 60
-150 5 0 9 -5 9 -12 0 -42 152 -206 265 -287 72 -51 305 -178 305 -166 0 3 17
-2 38 -11 20 -9 42 -17 47 -18 6 -2 30 -9 55 -16 25 -7 50 -14 55 -16 21 -5
81 -16 100 -19 11 -1 20 -4 20 -5 0 -1 16 -3 35 -5 19 -2 38 -3 42 -4 9 -1 7
-71 -2 -71 -4 0 -6 -9 -5 -21 1 -12 -11 -56 -26 -99 -15 -43 -25 -81 -22 -84
4 -3 2 -6 -4 -6 -5 0 -10 -6 -11 -12 -2 -27 -11 -79 -21 -115 -5 -21 -12 -63
-16 -93 -6 -53 -10 -83 -20 -125 -32 -144 -47 -205 -69 -285 -27 -96 -62 -208
-77 -245 -4 -11 -13 -38 -20 -60 -6 -22 -15 -45 -20 -51 -5 -6 -10 -19 -12
-30 -1 -10 -10 -34 -20 -53 -9 -19 -17 -38 -17 -43 0 -16 -158 -338 -179 -364
-12 -15 -18 -30 -15 -35 3 -5 1 -9 -5 -9 -6 0 -17 -16 -26 -35 -9 -19 -23 -39
-31 -46 -8 -6 -14 -16 -14 -21 0 -5 -9 -19 -21 -31 -45 -48 -42 -57 10 -31 47
22 150 62 181 69 8 2 15 4 15 5 0 1 8 3 17 5 33 6 153 36 168 42 8 3 29 7 45
9 17 1 44 5 60 8 112 18 283 36 382 39 29 1 53 6 53 10 0 4 8 3 19 -2 10 -6
21 -7 25 -4 12 13 480 3 544 -12 58 -13 69 -15 102 -20 71 -9 141 -17 183 -20
23 -2 56 -6 72 -9 39 -7 177 -17 241 -18 54 -1 226 12 234 17 3 2 26 6 50 10
25 3 66 12 93 20 26 8 47 11 47 8 0 -3 7 1 17 8 9 8 17 13 17 11 1 -2 13 1 27
7 15 5 35 11 45 13 11 2 21 6 24 10 3 3 12 8 20 10 46 10 322 171 340 198 3 4
29 22 59 40 61 35 210 130 226 143 6 4 45 34 87 66 97 74 117 91 252 227 107
107 166 171 166 181 0 4 58 81 70 93 16 16 99 150 93 150 -5 0 -3 4 3 8 11 7
64 104 65 119 0 5 6 15 13 23 7 8 21 38 31 65 10 28 22 55 26 60 4 6 10 22 12
35 3 14 10 36 16 50 16 38 50 180 56 235 1 15 10 20 41 23 87 6 175 81 180
154 3 35 4 39 13 34 26 -16 141 69 141 105 0 10 4 20 9 23 14 9 3 105 -16 136
-21 37 -89 71 -142 73 -22 1 -41 6 -41 10 0 5 -4 6 -8 3 -4 -2 -14 -1 -22 4
-10 7 -3 9 23 7 20 -2 37 0 37 5 0 4 3 7 8 7 18 -4 72 15 72 24 0 6 3 8 6 4 8
-8 34 18 34 33 0 6 4 9 9 6 22 -14 41 83 27 142 -14 58 -102 132 -156 132 -18
0 -21 4 -20 25 1 9 -32 69 -44 80 -56 54 -146 77 -205 52 -47 -20 -91 -81 -95
-132 -1 -11 -4 -24 -7 -30 -3 -5 -4 -20 -3 -32 3 -43 -14 -23 -21 24 -16 108
-88 177 -173 167 -28 -4 -48 5 -111 46 -42 27 -81 53 -86 57 -6 5 -41 23 -78
40 -37 18 -67 36 -68 40 0 5 -2 28 -4 53 -4 64 -16 164 -22 172 -2 5 -6 18 -9
30 -3 13 -6 28 -8 33 -2 6 -6 24 -11 40 -4 17 -11 35 -16 40 -4 6 -8 15 -9 20
-7 33 -125 295 -132 295 -2 0 -4 -107 -3 -237 0 -131 -3 -256 -6 -278 -7 -43
-8 -43 -15 -5 -5 25 -38 127 -54 165 -11 26 -22 59 -20 63 0 1 -6 15 -13 30
-8 15 -32 63 -53 107 -22 44 -54 104 -71 133 -18 30 -33 58 -33 63 0 5 -4 9
-8 9 -4 0 -16 15 -27 32 -22 37 -35 53 -127 150 -38 38 -68 66 -68 62 0 -5 -5
-2 -10 6 -20 30 -2 -42 27 -110 3 -8 8 -24 10 -35 2 -11 8 -31 13 -45 5 -14
12 -38 15 -55 3 -16 12 -55 20 -85 8 -30 15 -59 15 -63 0 -4 -20 4 -45 17 -25
14 -45 23 -45 20 0 -4 -6 -2 -12 4 -12 9 -56 23 -123 38 -16 3 -77 8 -134 11
-85 4 -102 3 -95 -8 6 -11 5 -12 -8 -2 -8 7 -17 11 -19 9 -2 -2 -26 -7 -54
-10 -95 -10 -165 -23 -172 -30 -6 -5 56 -36 74 -36 7 0 13 -4 13 -9 0 -5 10
-12 23 -16 12 -4 24 -8 27 -9 6 -2 142 -66 215 -101 46 -22 47 -33 5 -34 -78
-1 -291 -25 -331 -37 -11 -3 -34 17 -72 63 -132 160 -301 290 -507 390 -87 42
-163 73 -190 78 -3 0 -21 6 -41 13 -64 22 -229 51 -266 47 -13 -1 -23 2 -23 6
0 5 -11 4 -24 -1 -14 -5 -27 -5 -33 1 -5 5 -12 6 -16 3z m1478 -766 c128 -24
124 -24 180 -43 26 -8 50 -14 52 -11 2 2 16 -2 30 -9 15 -8 30 -12 35 -9 4 3
8 0 8 -5 0 -6 6 -11 13 -11 7 0 21 -6 30 -12 14 -11 3 -13 -68 -13 -47 1 -85
-2 -85 -5 0 -3 -27 -5 -60 -5 -33 0 -60 -3 -60 -7 0 -5 -10 -6 -22 -5 -12 2
-50 -2 -86 -10 -35 -7 -68 -11 -73 -7 -5 3 -9 1 -9 -3 0 -5 -11 -10 -25 -11
-21 -1 -26 4 -35 39 -12 44 -14 48 -47 116 l-21 43 71 -6 c40 -3 117 -15 172
-26z"/>
</g>
</svg>
